<svg xmlns="http://www.w3.org/2000/svg" viewBox="0 0 78.4 146.2"><defs><style>.cls-1{fill:#444141;}.cls-2{fill:#d83e27;}</style></defs><g id="Layer_2" data-name="Layer 2"><g id="OBJECTS"><path class="cls-1" d="M5.51,143.45a2.76,2.76,0,1,1-2.75-2.76A2.76,2.76,0,0,1,5.51,143.45Z"/><path class="cls-1" d="M5.51,123.32a2.76,2.76,0,1,1-2.75-2.76A2.75,2.75,0,0,1,5.51,123.32Z"/><circle class="cls-1" cx="2.76" cy="103.19" r="2.76"/><path class="cls-1" d="M5.51,83.06A2.76,2.76,0,1,1,2.76,80.3,2.75,2.75,0,0,1,5.51,83.06Z"/><path class="cls-1" d="M5.51,62.93a2.76,2.76,0,1,1-2.75-2.76A2.75,2.75,0,0,1,5.51,62.93Z"/><path class="cls-1" d="M23.73,143.45A2.76,2.76,0,1,1,21,140.69,2.75,2.75,0,0,1,23.73,143.45Z"/><path class="cls-1" d="M23.73,123.32A2.76,2.76,0,1,1,21,120.56,2.75,2.75,0,0,1,23.73,123.32Z"/><path class="cls-1" d="M23.73,103.19A2.76,2.76,0,1,1,21,100.43,2.75,2.75,0,0,1,23.73,103.19Z"/><path class="cls-1" d="M23.73,83.06A2.76,2.76,0,1,1,21,80.3,2.75,2.75,0,0,1,23.73,83.06Z"/><path class="cls-2" d="M23.73,62.93A2.76,2.76,0,1,1,21,60.17,2.75,2.75,0,0,1,23.73,62.93Z"/><path class="cls-2" d="M42,143.45a2.76,2.76,0,1,1-2.76-2.76A2.76,2.76,0,0,1,42,143.45Z"/><path class="cls-1" d="M42,123.32a2.76,2.76,0,1,1-2.76-2.76A2.76,2.76,0,0,1,42,123.32Z"/><path class="cls-1" d="M42,103.19a2.76,2.76,0,1,1-2.76-2.76A2.76,2.76,0,0,1,42,103.19Z"/><path class="cls-1" d="M42,83.06A2.76,2.76,0,1,1,39.2,80.3,2.76,2.76,0,0,1,42,83.06Z"/><path class="cls-1" d="M42,62.93a2.76,2.76,0,1,1-2.76-2.76A2.76,2.76,0,0,1,42,62.93Z"/><path class="cls-1" d="M60.18,143.45a2.76,2.76,0,1,1-2.75-2.76A2.75,2.75,0,0,1,60.18,143.45Z"/><path class="cls-1" d="M60.18,123.32a2.76,2.76,0,1,1-2.75-2.76A2.75,2.75,0,0,1,60.18,123.32Z"/><circle class="cls-1" cx="57.43" cy="103.19" r="2.76"/><path class="cls-1" d="M60.18,83.06a2.76,2.76,0,1,1-2.75-2.76A2.75,2.75,0,0,1,60.18,83.06Z"/><path class="cls-1" d="M60.18,62.93a2.76,2.76,0,1,1-2.75-2.76A2.75,2.75,0,0,1,60.18,62.93Z"/><path class="cls-1" d="M78.4,143.45a2.76,2.76,0,1,1-2.75-2.76A2.75,2.75,0,0,1,78.4,143.45Z"/><path class="cls-1" d="M78.4,123.32a2.76,2.76,0,1,1-2.75-2.76A2.75,2.75,0,0,1,78.4,123.32Z"/><path class="cls-1" d="M78.4,103.19a2.76,2.76,0,1,1-2.75-2.76A2.75,2.75,0,0,1,78.4,103.19Z"/><path class="cls-2" d="M78.4,83.06a2.76,2.76,0,1,1-2.75-2.76A2.75,2.75,0,0,1,78.4,83.06Z"/><path class="cls-1" d="M78.4,62.93a2.76,2.76,0,1,1-2.75-2.76A2.75,2.75,0,0,1,78.4,62.93Z"/><path class="cls-1" d="M5.51,43a2.76,2.76,0,1,1-2.75-2.75A2.76,2.76,0,0,1,5.51,43Z"/><path class="cls-1" d="M5.51,22.89a2.76,2.76,0,1,1-2.75-2.76A2.76,2.76,0,0,1,5.51,22.89Z"/><path class="cls-1" d="M5.51,2.76A2.76,2.76,0,1,1,2.76,0,2.76,2.76,0,0,1,5.51,2.76Z"/><path class="cls-1" d="M23.73,43A2.76,2.76,0,1,1,21,40.26,2.76,2.76,0,0,1,23.73,43Z"/><path class="cls-2" d="M23.73,22.89A2.76,2.76,0,1,1,21,20.13,2.75,2.75,0,0,1,23.73,22.89Z"/><path class="cls-1" d="M23.73,2.76A2.76,2.76,0,1,1,21,0,2.75,2.75,0,0,1,23.73,2.76Z"/><path class="cls-1" d="M42,43a2.76,2.76,0,1,1-2.76-2.75A2.77,2.77,0,0,1,42,43Z"/><path class="cls-1" d="M42,22.89a2.76,2.76,0,1,1-2.76-2.76A2.76,2.76,0,0,1,42,22.89Z"/><path class="cls-1" d="M42,2.76A2.76,2.76,0,1,1,39.2,0,2.76,2.76,0,0,1,42,2.76Z"/><path class="cls-1" d="M60.18,43a2.76,2.76,0,1,1-2.75-2.75A2.76,2.76,0,0,1,60.18,43Z"/><path class="cls-1" d="M60.18,22.89a2.76,2.76,0,1,1-2.75-2.76A2.75,2.75,0,0,1,60.18,22.89Z"/><path class="cls-1" d="M60.18,2.76A2.76,2.76,0,1,1,57.43,0,2.75,2.75,0,0,1,60.18,2.76Z"/><path class="cls-1" d="M78.4,43a2.76,2.76,0,1,1-2.75-2.75A2.76,2.76,0,0,1,78.4,43Z"/><path class="cls-1" d="M78.4,22.89a2.76,2.76,0,1,1-2.75-2.76A2.75,2.75,0,0,1,78.4,22.89Z"/><path class="cls-1" d="M78.4,2.76A2.76,2.76,0,1,1,75.65,0,2.75,2.75,0,0,1,78.4,2.76Z"/></g></g></svg>